<svg width="32" height="32" viewBox="0 0 32 32" fill="none" xmlns="http://www.w3.org/2000/svg">
<g clip-path="url(#clip0_104_28)">
<path d="M16 32C24.8366 32 32 24.8366 32 16C32 7.16344 24.8366 0 16 0C7.16344 0 0 7.16344 0 16C0 24.8366 7.16344 32 16 32Z" fill="#2F3242"/>
<path d="M12.8488 9.8757C13.0933 9.9203 13.3277 9.75825 13.3723 9.51375C13.4169 9.26927 13.2548 9.0349 13.0103 8.9903L12.8488 9.8757ZM7.15379 10.8938L7.54367 11.1185L7.15379 10.8938ZM7.23479 15.2339C7.35827 15.4496 7.63319 15.5244 7.84889 15.4009C8.06459 15.2774 8.13934 15.0025 8.01586 14.7868L7.23479 15.2339ZM9.42334 16.6864C9.25622 16.5025 8.97161 16.4888 8.78766 16.656C8.60371 16.8231 8.59009 17.1077 8.75721 17.2916L9.42334 16.6864ZM13.4372 20.4253L13.2119 20.8149L13.4372 20.4253ZM24.2301 22.3787C24.4354 22.2386 24.4881 21.9586 24.3479 21.7534C24.2078 21.5481 23.9278 21.4954 23.7226 21.6355L24.2301 22.3787ZM13.0103 8.9903C11.6178 8.73627 10.3212 8.72415 9.24342 8.9844C8.16367 9.24515 7.27099 9.7894 6.76394 10.669L7.54367 11.1185C7.89229 10.5137 8.53617 10.0811 9.45467 9.85927C10.3752 9.63697 11.5386 9.6367 12.8488 9.8757L13.0103 8.9903ZM6.76394 10.669C6.01072 11.9757 6.31949 13.635 7.23479 15.2339L8.01586 14.7868C7.16444 13.2994 7.02717 12.0145 7.54367 11.1185L6.76394 10.669ZM8.75721 17.2916C9.90959 18.56 11.4289 19.7839 13.2119 20.8149L13.6624 20.0358C11.952 19.0467 10.5074 17.8796 9.42334 16.6864L8.75721 17.2916ZM13.2119 20.8149C15.336 22.0431 17.5116 22.8111 19.4337 23.0902C21.3397 23.3669 23.0686 23.172 24.2301 22.3787L23.7226 21.6355C22.8313 22.2442 21.3725 22.4622 19.5631 22.1995C17.7698 21.9392 15.7022 21.2153 13.6624 20.0358L13.2119 20.8149ZM26.3397 21.2269C26.3397 20.3584 25.6365 19.6532 24.7677 19.6532V20.5532C25.1382 20.5532 25.4397 20.8541 25.4397 21.2269H26.3397ZM24.7677 19.6532C23.8989 19.6532 23.1957 20.3584 23.1957 21.2269H24.0957C24.0957 20.8541 24.3973 20.5532 24.7677 20.5532V19.6532ZM23.1957 21.2269C23.1957 22.0954 23.8989 22.8007 24.7677 22.8007V21.9007C24.3973 21.9007 24.0957 21.5997 24.0957 21.2269H23.1957ZM24.7677 22.8007C25.6365 22.8007 26.3397 22.0954 26.3397 21.2269H25.4397C25.4397 21.5997 25.1382 21.9007 24.7677 21.9007V22.8007Z" fill="#A2ECFB"/>
<path d="M22.8718 16.3455C22.7114 16.5353 22.7352 16.8192 22.9251 16.9796C23.1149 17.1401 23.3988 17.1162 23.5592 16.9264L22.8718 16.3455ZM24.8292 10.9088L24.4394 11.1336L24.8292 10.9088ZM21.1268 8.8103C20.8783 8.80705 20.6742 9.0059 20.671 9.2544C20.6677 9.5029 20.8665 9.70697 21.1151 9.71022L21.1268 8.8103ZM18.7352 9.97002C18.9782 9.9179 19.1329 9.67862 19.0808 9.43562C19.0286 9.19265 18.7893 9.03792 18.5464 9.09007L18.7352 9.97002ZM13.4459 11.5932L13.6712 11.9827L13.4459 11.5932ZM6.3873 20.2262C6.42332 20.4721 6.65187 20.6422 6.8978 20.6062C7.1437 20.5701 7.31382 20.3416 7.2778 20.0957L6.3873 20.2262ZM23.5592 16.9264C24.471 15.8477 25.1263 14.7317 25.438 13.6695C25.7503 12.6053 25.725 11.5618 25.219 10.6841L24.4394 11.1336C24.7874 11.7373 24.8401 12.5105 24.5744 13.4161C24.3081 14.3236 23.7296 15.3306 22.8718 16.3455L23.5592 16.9264ZM25.219 10.6841C24.478 9.39845 22.9271 8.83375 21.1268 8.8103L21.1151 9.71022C22.7832 9.73195 23.9316 10.2526 24.4394 11.1336L25.219 10.6841ZM18.5464 9.09007C16.8591 9.45215 15.022 10.162 13.2207 11.2036L13.6712 11.9827C15.3993 10.9834 17.1487 10.3105 18.7352 9.97002L18.5464 9.09007ZM13.2207 11.2036C11.0342 12.468 9.24175 14.0238 8.0373 15.5982C6.84437 17.1575 6.17872 18.8029 6.3873 20.2262L7.2778 20.0957C7.121 19.0256 7.6187 17.6265 8.75212 16.145C9.87402 14.6786 11.571 13.1972 13.6712 11.9827L13.2207 11.2036Z" fill="#A2ECFB"/>
<path d="M12.2706 21.8074C12.1869 21.5734 11.9293 21.4515 11.6953 21.5352C11.4613 21.6188 11.3394 21.8764 11.4231 22.1104L12.2706 21.8074ZM19.6408 24.1064C19.7687 23.8933 19.6996 23.6169 19.4865 23.489C19.2735 23.3611 18.997 23.4301 18.8691 23.6432L19.6408 24.1064ZM19.8925 21.2949C19.8184 21.5321 19.9506 21.7845 20.1878 21.8586C20.425 21.9327 20.6774 21.8005 20.7515 21.5633L19.8925 21.2949ZM21.0957 16.0168H20.6457H21.0957ZM17.2889 5.63253C17.0619 5.53153 16.7959 5.63375 16.6949 5.86083C16.5939 6.08793 16.6961 6.35388 16.9232 6.45485L17.2889 5.63253ZM11.4231 22.1104C11.8998 23.4435 12.5373 24.5726 13.3007 25.3763C14.0655 26.181 14.9819 26.6828 15.9958 26.6828V25.7828C15.2995 25.7828 14.6041 25.4413 13.9532 24.7562C13.301 24.0698 12.7191 23.0619 12.2706 21.8074L11.4231 22.1104ZM15.9958 26.6828C17.4673 26.6828 18.723 25.6355 19.6408 24.1064L18.8691 23.6432C18.0195 25.0588 17.003 25.7828 15.9958 25.7828V26.6828ZM20.7515 21.5633C21.2567 19.9466 21.5457 18.0458 21.5457 16.0168H20.6457C20.6457 17.9634 20.368 19.773 19.8925 21.2949L20.7515 21.5633ZM21.5457 16.0168C21.5457 13.5286 21.1109 11.2305 20.374 9.41255C19.6436 7.6109 18.5858 6.20928 17.2889 5.63253L16.9232 6.45485C17.909 6.89328 18.8461 8.0391 19.5399 9.75065C20.2271 11.4459 20.6457 13.6268 20.6457 16.0168H21.5457Z" fill="#A2ECFB"/>
<path fill-rule="evenodd" clip-rule="evenodd" d="M25.8897 21.2269C25.8897 20.6063 25.3875 20.1032 24.7677 20.1032C24.1481 20.1032 23.6458 20.6063 23.6458 21.2269C23.6458 21.8476 24.1481 22.3507 24.7677 22.3507C25.3875 22.3507 25.8897 21.8476 25.8897 21.2269Z" stroke="#A2ECFB" stroke-width="3.6" stroke-linecap="round"/>
<path fill-rule="evenodd" clip-rule="evenodd" d="M7.20352 22.3507C7.82317 22.3507 8.32552 21.8476 8.32552 21.2269C8.32552 20.6063 7.82317 20.1032 7.20352 20.1032C6.58387 20.1032 6.08154 20.6063 6.08154 21.2269C6.08154 21.8476 6.58387 22.3507 7.20352 22.3507Z" stroke="#A2ECFB" stroke-width="3.6" stroke-linecap="round"/>
<path d="M15.9959 6.92465C16.6155 6.92465 17.1179 6.42153 17.1179 5.8009C17.1179 5.18027 16.6155 4.67715 15.9959 4.67715C15.3762 4.67715 14.8739 5.18027 14.8739 5.8009C14.8739 6.42153 15.3762 6.92465 15.9959 6.92465Z" stroke="#A2ECFB" stroke-width="3.6" stroke-linecap="round"/>
<path fill-rule="evenodd" clip-rule="evenodd" d="M16.2125 17.0214C15.6585 17.1413 15.1127 16.7887 14.9928 16.2338C14.8733 15.679 15.2251 15.1323 15.7791 15.0122C16.3331 14.8923 16.8789 15.2449 16.9988 15.7998C17.1185 16.3546 16.7665 16.9013 16.2125 17.0214Z" fill="#A2ECFB"/>
</g>
<defs>
<clipPath id="clip0_104_28">
<rect width="32" height="32" fill="white"/>
</clipPath>
</defs>
</svg>
