<svg width="32" height="32" viewBox="0 0 32 32" fill="none" xmlns="http://www.w3.org/2000/svg">
<g clip-path="url(#clip0_13_10)">
<path d="M24.232 20.232C24.5155 20.5155 24.3145 21 23.914 21H16.45C16.201 21 16 21.201 16 21.45V28.914C16 29.3145 15.5155 29.5155 15.232 29.232L7.1755 21.1755C7.063 21.063 7 20.91 7 20.751V12.45C7 12.201 7.201 12 7.45 12H16L24.232 20.232Z" fill="black"/>
<path d="M16 12L7.768 3.768C7.4845 3.4845 7.6855 3 8.086 3H24.55C24.799 3 25 3.201 25 3.45V11.55C25 11.799 24.799 12 24.55 12H16Z" fill="black"/>
</g>
<defs>
<clipPath id="clip0_13_10">
<rect width="18" height="27" fill="white" transform="translate(7 3)"/>
</clipPath>
</defs>
</svg>
