<svg width="32" height="32" viewBox="0 0 32 32" fill="none" xmlns="http://www.w3.org/2000/svg">
<g clip-path="url(#clip0_11_2)">
<path d="M19.9153 3.31599V9.33845L26.683 26.7204C26.683 26.7204 28.7491 30.9656 22.8398 32H9.35897C9.35897 32 3.85119 31.4253 5.1716 27.0642L12.2837 9.33868V3.31599H19.9153Z" fill="#009688"/>
<path d="M20.0582 2.61578H11.9397C11.2822 2.61578 10.7473 2.03083 10.7473 1.30812C10.7473 0.584943 11.282 0 11.9397 0H20.0582C20.7187 0 21.2527 0.584943 21.2527 1.30812C21.2527 2.03083 20.7185 2.61578 20.0582 2.61578Z" fill="#004D40"/>
<path d="M17.9165 13.1494C18.7877 13.1494 19.4981 14.0006 19.4981 15.0547C19.4981 16.1043 18.7872 16.9575 17.9165 16.9575C17.0433 16.9575 16.3349 16.1043 16.3349 15.0547C16.3349 14.0001 17.0433 13.1494 17.9165 13.1494Z" fill="white"/>
<path d="M13.0614 18.0922C13.7977 18.0922 14.3945 17.3728 14.3945 16.4853C14.3945 15.5979 13.7977 14.8785 13.0614 14.8785C12.3251 14.8785 11.7282 15.5979 11.7282 16.4853C11.7282 17.3728 12.3251 18.0922 13.0614 18.0922Z" fill="white"/>
<path d="M20.5172 8.93928V6.07486C20.5172 6.07486 24.1495 5.27399 25.9649 9.49894C25.9649 9.49894 23.1357 11.5602 20.5172 8.93928Z" fill="#004D40"/>
<path d="M11.6206 8.93928V6.07486C11.6206 6.07486 7.98778 5.27399 6.17334 9.49894C6.17334 9.49894 8.99971 11.5602 11.6206 8.93928Z" fill="#004D40"/>
<path d="M22.7011 20.7931C16.7944 18.9608 11.8284 19.9444 9.40119 20.688L6.95357 26.5794C5.85164 30.0965 10.4528 30.5587 10.4528 30.5587H21.7121C26.6475 29.7249 24.9226 26.3034 24.9226 26.3034L22.7011 20.7931Z" fill="white"/>
<path d="M14.1886 22.9821C14.1886 23.6174 13.3348 24.1341 12.2832 24.1341C11.2316 24.1341 10.3804 23.6171 10.3804 22.9821C10.3804 22.3443 11.2316 21.8294 12.2832 21.8294C13.3353 21.8298 14.1886 22.3443 14.1886 22.9821Z" fill="#004D40"/>
<path d="M20.9643 22.9821C20.9643 23.6174 20.1106 24.1341 19.0615 24.1341C18.0069 24.1341 17.1562 23.6171 17.1562 22.9821C17.1562 22.3443 18.0069 21.8294 19.0615 21.8294C20.1111 21.8298 20.9643 22.3443 20.9643 22.9821Z" fill="#004D40"/>
</g>
<defs>
<clipPath id="clip0_11_2">
<rect width="32" height="32" fill="white"/>
</clipPath>
</defs>
</svg>
