<svg width="32" height="32" viewBox="0 0 32 32" fill="none" xmlns="http://www.w3.org/2000/svg">
<path d="M16 18C17.1046 18 18 16.8807 18 15.5C18 14.1193 17.1046 13 16 13C14.8954 13 14 14.1193 14 15.5C14 16.8807 14.8954 18 16 18Z" fill="#61DAFB"/>
<path d="M16 21.6575C24.2843 21.6575 31 19.0842 31 15.91C31 12.7357 24.2843 10.1625 16 10.1625C7.71572 10.1625 1 12.7357 1 15.91C1 19.0842 7.71572 21.6575 16 21.6575Z" stroke="#61DAFB"/>
<path d="M11.04 18.7837C15.1822 25.9834 20.7607 30.5333 23.5 28.9462C26.2393 27.3591 25.1021 20.2359 20.96 13.0362C16.8178 5.83652 11.2393 1.28662 8.5 2.87374C5.76069 4.46087 6.8979 11.584 11.04 18.7837Z" stroke="#61DAFB"/>
<path d="M11.04 13.0362C6.89791 20.2359 5.7607 27.3591 8.50001 28.9462C11.2393 30.5333 16.8178 25.9834 20.96 18.7837C25.1021 11.584 26.2393 4.46088 23.5 2.87375C20.7607 1.28663 15.1822 5.83653 11.04 13.0362Z" stroke="#61DAFB"/>
</svg>
