<svg width="32" height="32" viewBox="0 0 32 32" fill="none" xmlns="http://www.w3.org/2000/svg">
<path d="M20.992 20.928C21.92 20.832 22.624 20.032 22.592 19.072C22.56 18.112 21.76 17.344 20.8 17.344H20.736C19.744 17.376 18.976 18.208 19.008 19.2C19.04 19.68 19.232 20.096 19.52 20.384C18.432 22.528 16.768 24.096 14.272 25.408C12.576 26.304 10.816 26.624 9.05599 26.4C7.61599 26.208 6.496 25.568 5.792 24.512C4.768 22.944 4.67199 21.248 5.53599 19.552C6.14399 18.336 7.10399 17.44 7.71199 16.992C7.58399 16.576 7.39199 15.872 7.29599 15.36C2.65599 18.72 3.13599 23.264 4.54399 25.408C5.59999 27.008 7.744 28 10.112 28C10.752 28 11.392 27.936 12.032 27.776C16.128 26.976 19.232 24.544 20.992 20.928Z" fill="#764ABC"/>
<path d="M26.624 16.96C24.192 14.112 20.608 12.544 16.512 12.544H16C15.712 11.968 15.104 11.584 14.432 11.584H14.368C13.376 11.616 12.608 12.448 12.64 13.44C12.672 14.4 13.472 15.168 14.432 15.168H14.496C15.2 15.136 15.808 14.688 16.064 14.08H16.64C19.072 14.08 21.376 14.784 23.456 16.16C25.056 17.216 26.208 18.592 26.848 20.256C27.392 21.6 27.36 22.912 26.784 24.032C25.888 25.728 24.384 26.656 22.4 26.656C21.12 26.656 19.904 26.272 19.264 25.984C18.912 26.304 18.272 26.816 17.824 27.136C19.2 27.776 20.608 28.128 21.952 28.128C25.024 28.128 27.296 26.432 28.16 24.736C29.088 22.88 29.024 19.68 26.624 16.96Z" fill="#764ABC"/>
<path d="M10.368 21.472C10.4 22.432 11.2 23.2 12.16 23.2H12.224C13.216 23.168 13.984 22.336 13.952 21.344C13.92 20.384 13.12 19.616 12.16 19.616H12.096C12.032 19.616 11.936 19.616 11.872 19.648C10.56 17.472 10.016 15.104 10.208 12.544C10.336 10.624 10.976 8.96001 12.096 7.58401C13.024 6.40001 14.816 5.82401 16.032 5.79201C19.424 5.72801 20.864 9.95201 20.96 11.648C21.376 11.744 22.08 11.968 22.56 12.128C22.176 6.94401 18.976 4.25601 15.904 4.25601C13.024 4.25601 10.368 6.33601 9.31198 9.40801C7.83998 13.504 8.79998 17.44 10.592 20.544C10.432 20.768 10.336 21.12 10.368 21.472Z" fill="#764ABC"/>
</svg>
