<svg width="32" height="32" viewBox="0 0 32 32" fill="none" xmlns="http://www.w3.org/2000/svg">
<path fill-rule="evenodd" clip-rule="evenodd" d="M16.0003 6C11.7333 6 9.06707 8.11125 7.99984 12.3337C9.60006 10.2225 11.4668 9.43094 13.6 9.95844C14.8171 10.2593 15.6874 11.1333 16.6499 12.1009C18.2188 13.6765 20.0347 15.5 24.0002 15.5C28.2666 15.5 30.9334 13.3887 32 9.16687C30.4004 11.2781 28.5337 12.0697 26.4005 11.5416C25.1828 11.2407 24.3124 10.3667 23.3499 9.39972C21.781 7.82284 19.9657 6 16.0003 6ZM7.99984 15.5C3.73343 15.5 1.0666 17.6112 0 21.8337C1.60022 19.7225 3.46693 18.9309 5.59951 19.4584C6.81724 19.7593 7.68757 20.6333 8.65009 21.6009C10.219 23.1765 12.0343 25 16.0003 25C20.2667 25 22.9336 22.8894 24.0002 18.6669C22.3999 20.7781 20.5332 21.5697 18.4 21.0422C17.1829 20.7407 16.3126 19.8667 15.3501 18.8997C13.7812 17.3241 11.9653 15.5 7.99984 15.5V15.5Z" fill="#38BDF8"/>
</svg>
