<svg width="32" height="32" viewBox="0 0 32 32" fill="none" xmlns="http://www.w3.org/2000/svg">
<g clip-path="url(#clip0_104_51)">
<path d="M30.9053 4.59777L16.3393 30.6588C16.0386 31.1969 15.266 31.2 14.9607 30.6646L0.105915 4.60028C-0.226638 4.01678 0.27204 3.31 0.932891 3.42819L15.5145 6.03601C15.6075 6.05265 15.7027 6.05249 15.7957 6.03553L30.0724 3.43192C30.731 3.31181 31.232 4.01312 30.9053 4.59777Z" fill="url(#paint0_linear_104_51)"/>
<path d="M22.4604 0.0076477L11.6812 2.12098C11.504 2.15571 11.3728 2.30594 11.3622 2.48622L10.6991 13.6913C10.6835 13.9552 10.9257 14.16 11.1832 14.1006L14.1843 13.4076C14.4651 13.3428 14.7188 13.5903 14.6611 13.8728L13.7694 18.2414C13.7094 18.5354 13.9853 18.7868 14.2723 18.6996L16.1259 18.1361C16.4133 18.0488 16.6894 18.3009 16.6286 18.5952L15.2116 25.4572C15.123 25.8864 15.6936 26.1205 15.9316 25.7525L16.0905 25.5067L24.8741 7.96785C25.0211 7.67419 24.7675 7.33934 24.4452 7.40158L21.356 7.99811C21.0657 8.05411 20.8187 7.78362 20.9007 7.49944L22.9169 0.506063C22.9989 0.221409 22.751 -0.0493201 22.4604 0.0076477Z" fill="url(#paint1_linear_104_51)"/>
</g>
<defs>
<linearGradient id="paint0_linear_104_51" x1="-0.256775" y1="2.4968" x2="17.8848" y2="27.1208" gradientUnits="userSpaceOnUse">
<stop stop-color="#41D1FF"/>
<stop offset="1" stop-color="#BD34FE"/>
</linearGradient>
<linearGradient id="paint1_linear_104_51" x1="14.6775" y1="0.581413" x2="17.9605" y2="23.0895" gradientUnits="userSpaceOnUse">
<stop stop-color="#FFEA83"/>
<stop offset="0.0833333" stop-color="#FFDD35"/>
<stop offset="1" stop-color="#FFA800"/>
</linearGradient>
<clipPath id="clip0_104_51">
<rect width="32" height="32" fill="white"/>
</clipPath>
</defs>
</svg>
